<?xml version="1.0" ?><svg enable-background="new 0 0 40 40" height="40px" width="40px" id="Слой_1" version="1.1" viewBox="0 0 40 40" xml:space="preserve" xmlns="http://www.w3.org/2000/svg" xmlns:xlink="http://www.w3.org/1999/xlink"><g><path d="M36.9,22.8c-0.5,0-1,0.4-1,1v12.1c0,1.2-1,2.2-2.2,2.2h-7.1v-7.4c0-3.7-3-6.7-6.7-6.7s-6.7,3-6.7,6.7V38H6.1   c-1.2,0-2.2-1-2.2-2.2V23.8c0-0.6-0.5-1-1-1s-1,0.4-1,1v12.1c0,2.3,1.9,4.2,4.2,4.2h27.7c2.3,0,4.2-1.9,4.2-4.2V23.8   C37.9,23.2,37.4,22.8,36.9,22.8z M24.6,38h-9.4v-7.4c0-2.6,2.1-4.7,4.7-4.7s4.7,2.1,4.7,4.7V38z"/></g><g><path d="M38.9,15.1l-6.5-7c0,0,0-0.1,0-0.1V4.9c0-2.7-2.2-4.9-4.9-4.9H12.3C9.6,0,7.4,2.2,7.4,4.9V8c0,0.1,0,0.1,0,0.1l-6.5,7   c-0.9,1-1.2,2.4-0.6,3.6c0.5,1.2,1.7,2,3.1,2h33.2c1.4,0,2.5-0.8,3.1-2C40.1,17.5,39.8,16.1,38.9,15.1z M9.4,4.9   c0-1.6,1.3-2.9,2.9-2.9h15.2c1.6,0,2.9,1.3,2.9,2.9V7h-21V4.9z M37.7,17.9c-0.2,0.5-0.7,0.8-1.2,0.8H3.3c-0.6,0-1-0.3-1.2-0.8   c-0.2-0.5-0.1-1.1,0.3-1.4l7-7.5h21.1l7,7.5C37.8,16.9,37.9,17.4,37.7,17.9z"/></g><g><path d="M21.6,36c-0.6,0-1-0.4-1-1v-3.1c0-0.6,0.4-1,1-1s1,0.4,1,1V35C22.6,35.6,22.1,36,21.6,36z"/></g></svg>